<svg xmlns="http://www.w3.org/2000/svg" id="Layer_1" data-name="Layer 1" viewBox="95.84 387.1 399.16 67.69"><defs><style>.cls-1{fill:#fff;}.cls-2{fill:#fff;}.cls-3,.cls-4{fill:#fff;}.cls-3{stroke:#fff;stroke-miterlimit:10;stroke-width:0.5px;}</style></defs><path class="cls-1" d="M134,401.18a4.26,4.26,0,0,1,3.14,1.24,4.38,4.38,0,0,1,1.24,3.21V436.5a4.42,4.42,0,0,1-1.24,3.18,4.52,4.52,0,0,1-6.28,0,4.38,4.38,0,0,1-1.24-3.18v-3.57l1.61.65a4.12,4.12,0,0,1-1,2.3,14,14,0,0,1-2.78,2.66,17,17,0,0,1-4.12,2.23,14.19,14.19,0,0,1-5.15.91,16.68,16.68,0,0,1-9.12-2.59,18.2,18.2,0,0,1-6.46-7.15,24.49,24.49,0,0,1,0-21,18.41,18.41,0,0,1,6.39-7.15,16,16,0,0,1,8.9-2.59,17.11,17.11,0,0,1,10.33,3.36,14,14,0,0,1,3,2.95,4.77,4.77,0,0,1,1.06,2.52l-2.63.95v-5.33a4.36,4.36,0,0,1,1.24-3.17A4.2,4.2,0,0,1,134,401.18Zm-14.74,32.47a9.91,9.91,0,0,0,5.62-1.6,10.88,10.88,0,0,0,3.76-4.38,14,14,0,0,0,1.35-6.2,14.16,14.16,0,0,0-1.35-6.28,10.88,10.88,0,0,0-3.76-4.38,9.91,9.91,0,0,0-5.62-1.6,9.79,9.79,0,0,0-5.55,1.6,10.88,10.88,0,0,0-3.76,4.38,14.16,14.16,0,0,0-1.35,6.28,14,14,0,0,0,1.35,6.2,10.88,10.88,0,0,0,3.76,4.38A9.79,9.79,0,0,0,119.25,433.65Z"/><path class="cls-1" d="M145.61,434.41a4,4,0,0,1-.65-2.59,3.48,3.48,0,0,1,1.87-2.74,3.91,3.91,0,0,1,2.45-.61,4.12,4.12,0,0,1,2.52,1.33,17,17,0,0,0,4.39,3.24,12.82,12.82,0,0,0,5.76,1.15,17.63,17.63,0,0,0,2.38-.32,4.53,4.53,0,0,0,2.26-1.15,3.62,3.62,0,0,0,1-2.78,3.18,3.18,0,0,0-1.08-2.52,9.12,9.12,0,0,0-2.85-1.58c-1.17-.43-2.48-.84-3.92-1.22s-3-.91-4.57-1.44a19.75,19.75,0,0,1-4.29-2.05,9.86,9.86,0,0,1-3.16-3.35,10.26,10.26,0,0,1-1.23-5.26,9.46,9.46,0,0,1,2-6.12,13.1,13.1,0,0,1,5.22-3.89,17,17,0,0,1,6.73-1.37,22.35,22.35,0,0,1,4.68.54,18.84,18.84,0,0,1,4.68,1.73,11.62,11.62,0,0,1,3.74,3.14,5.08,5.08,0,0,1,.94,2.59,3.1,3.1,0,0,1-1.37,2.73,3.47,3.47,0,0,1-2.52.76,3.85,3.85,0,0,1-2.38-1,8.35,8.35,0,0,0-3.27-2.52,11.17,11.17,0,0,0-4.72-.94,12.62,12.62,0,0,0-2.34.25,4.62,4.62,0,0,0-2.19,1.08,3.93,3.93,0,0,0,.14,5.26,8,8,0,0,0,2.92,1.58c1.22.41,2.53.81,3.92,1.19s2.9.84,4.39,1.37a17.28,17.28,0,0,1,4.11,2.09,10,10,0,0,1,3,3.35,10.51,10.51,0,0,1,1.15,5.22,9.47,9.47,0,0,1-2.16,6.26,13.66,13.66,0,0,1-5.4,3.92,17.24,17.24,0,0,1-6.62,1.33,25.86,25.86,0,0,1-8.5-1.47A14.64,14.64,0,0,1,145.61,434.41Z"/><path class="cls-1" d="M180.81,402.59h17.07a3.93,3.93,0,0,1,4,4,3.69,3.69,0,0,1-1.15,2.77,4,4,0,0,1-2.88,1.11H180.81a3.93,3.93,0,0,1-4-4,3.74,3.74,0,0,1,1.15-2.77A4,4,0,0,1,180.81,402.59Zm7.71-9a4,4,0,0,1,3.06,1.25,4.43,4.43,0,0,1,1.19,3.14v32a3.15,3.15,0,0,0,.39,1.65,2.29,2.29,0,0,0,1.08.94,3.83,3.83,0,0,0,1.48.29,3.76,3.76,0,0,0,1.58-.33,4.1,4.1,0,0,1,1.66-.32,2.42,2.42,0,0,1,1.83.93,3.76,3.76,0,0,1,.83,2.6,3.81,3.81,0,0,1-2.19,3.31,9.18,9.18,0,0,1-4.72,1.29,24.52,24.52,0,0,1-3.35-.25,9,9,0,0,1-3.45-1.22,7.47,7.47,0,0,1-2.7-3,11.82,11.82,0,0,1-1.08-5.54V398a4.29,4.29,0,0,1,4.39-4.39Z"/><path class="cls-1" d="M212,440.38a4.18,4.18,0,0,1-3.1-1.25,4.35,4.35,0,0,1-1.22-3.14V406.26a4.31,4.31,0,0,1,1.22-3.13,4.44,4.44,0,0,1,6.2,0,4.31,4.31,0,0,1,1.22,3.13V413l-.5-4.82a11.09,11.09,0,0,1,2.05-3.06,12.21,12.21,0,0,1,2.84-2.23,13.08,13.08,0,0,1,3.39-1.33,15.22,15.22,0,0,1,3.6-.44,5.47,5.47,0,0,1,3.63,1.23,3.65,3.65,0,0,1,1.48,2.88,4.27,4.27,0,0,1-1.23,3.42,4,4,0,0,1-2.66,1,5.88,5.88,0,0,1-2.48-.5,6.13,6.13,0,0,0-2.56-.5,6.26,6.26,0,0,0-2.63.61,7.33,7.33,0,0,0-2.45,1.9,10.33,10.33,0,0,0-1.8,3.21,13.48,13.48,0,0,0-.68,4.5V436a4.35,4.35,0,0,1-1.22,3.14A4.18,4.18,0,0,1,212,440.38Z"/><path class="cls-1" d="M272.54,421.16a20.12,20.12,0,0,1-2.63,10.4,18.8,18.8,0,0,1-7.05,7,20.78,20.78,0,0,1-19.8,0,18.83,18.83,0,0,1-7.06-7,21.88,21.88,0,0,1,0-20.8,19.2,19.2,0,0,1,7.06-7.06,20.42,20.42,0,0,1,19.8,0,19.18,19.18,0,0,1,7.05,7.06A20.17,20.17,0,0,1,272.54,421.16Zm-8.64,0a13.12,13.12,0,0,0-1.47-6.37,11.08,11.08,0,0,0-4-4.21,10.75,10.75,0,0,0-11,0,10.93,10.93,0,0,0-4,4.21,13.12,13.12,0,0,0-1.48,6.37,13,13,0,0,0,1.48,6.3,10.87,10.87,0,0,0,4,4.21,10.81,10.81,0,0,0,11,0,11,11,0,0,0,4-4.21A13,13,0,0,0,263.9,421.16Z"/><path class="cls-1" d="M287.3,436a4.29,4.29,0,0,1-4.39,4.39,4.06,4.06,0,0,1-3-1.25,4.32,4.32,0,0,1-1.23-3.14V391.5a4.32,4.32,0,0,1,4.39-4.4,4,4,0,0,1,3.06,1.27,4.35,4.35,0,0,1,1.19,3.13Z"/><path class="cls-1" d="M331.87,421.16a20.22,20.22,0,0,1-2.63,10.4,18.8,18.8,0,0,1-7.05,7,20.78,20.78,0,0,1-19.8,0,18.76,18.76,0,0,1-7.06-7,21.88,21.88,0,0,1,0-20.8,19.13,19.13,0,0,1,7.06-7.06,20.42,20.42,0,0,1,19.8,0,19.18,19.18,0,0,1,7.05,7.06A20.27,20.27,0,0,1,331.87,421.16Zm-8.64,0a13,13,0,0,0-1.48-6.37,10.93,10.93,0,0,0-4-4.21,10.73,10.73,0,0,0-11,0,10.93,10.93,0,0,0-4,4.21,13,13,0,0,0-1.48,6.37,12.87,12.87,0,0,0,1.48,6.3,10.87,10.87,0,0,0,4,4.21,10.79,10.79,0,0,0,11,0,10.87,10.87,0,0,0,4-4.21A12.87,12.87,0,0,0,323.23,421.16Z"/><path class="cls-1" d="M353.25,401.14a15.92,15.92,0,0,1,5.55.94,16.13,16.13,0,0,1,4.35,2.38,14.06,14.06,0,0,1,2.88,2.91,4.66,4.66,0,0,1,1.05,2.49l-1.87.93v-5.25a4.33,4.33,0,0,1,1.22-3.14,4.47,4.47,0,0,1,6.19,0,4.28,4.28,0,0,1,1.23,3.17v32q0,6.26-2.7,10a15.29,15.29,0,0,1-7.1,5.47,26,26,0,0,1-9.43,1.7,25.44,25.44,0,0,1-3.74-.37c-1.54-.24-3-.52-4.39-.86a26.58,26.58,0,0,1-3.17-.93,6.21,6.21,0,0,1-3-2.34,3.53,3.53,0,0,1-.32-3,4.5,4.5,0,0,1,2.08-2.85,3.64,3.64,0,0,1,3-.18q.72.23,2.37.87c1.11.43,2.32.82,3.64,1.19a13.9,13.9,0,0,0,3.49.54c3.6,0,6.27-.73,8-2.16a7.38,7.38,0,0,0,2.6-6v-6.27l.86.65a4.1,4.1,0,0,1-1,2.27,13.34,13.34,0,0,1-2.67,2.63,16.31,16.31,0,0,1-4,2.2,13.57,13.57,0,0,1-4.9.89,17.07,17.07,0,0,1-9.21-2.55,18,18,0,0,1-6.48-7.06,23.76,23.76,0,0,1,0-20.73,18.31,18.31,0,0,1,6.4-7.06A16.51,16.51,0,0,1,353.25,401.14Zm1.37,7.92a10.23,10.23,0,0,0-5.69,1.59,10.8,10.8,0,0,0-3.81,4.32,13.55,13.55,0,0,0-1.37,6.19,13.37,13.37,0,0,0,1.37,6.12,10.67,10.67,0,0,0,3.81,4.32,11.16,11.16,0,0,0,11.45,0,10.77,10.77,0,0,0,3.82-4.32,13.5,13.5,0,0,0,1.37-6.12A13.68,13.68,0,0,0,364.2,415a10.9,10.9,0,0,0-3.82-4.32A10.33,10.33,0,0,0,354.62,409.06Z"/><path class="cls-1" d="M409.63,401.87a4.11,4.11,0,0,1,3.09,1.26,4.28,4.28,0,0,1,1.23,3.13v30.6q0,6.61-2.49,10.54a14.1,14.1,0,0,1-6.66,5.66,24.28,24.28,0,0,1-9.36,1.73,35.75,35.75,0,0,1-4.89-.37,16.46,16.46,0,0,1-4.25-1.08,6.1,6.1,0,0,1-3-2.34,3.5,3.5,0,0,1-.32-3,4.48,4.48,0,0,1,2.09-2.85,3.62,3.62,0,0,1,3-.18c.77.24,1.78.61,3,1.12a11.57,11.57,0,0,0,4.32.76A14.58,14.58,0,0,0,401,446a6.3,6.3,0,0,0,3.31-3,12.51,12.51,0,0,0,1.12-5.8v-4.82l1.51,1.73a12.57,12.57,0,0,1-3.06,3.92,12.15,12.15,0,0,1-4.35,2.34,19.15,19.15,0,0,1-5.76.79,12.31,12.31,0,0,1-6.66-1.76,11.89,11.89,0,0,1-4.43-4.9,15.56,15.56,0,0,1-1.59-7.16v-21a4.28,4.28,0,0,1,1.23-3.13,4.43,4.43,0,0,1,6.19,0,4.27,4.27,0,0,1,1.22,3.13v18.43q0,4.68,2.06,6.59a8.06,8.06,0,0,0,5.72,1.9,8.54,8.54,0,0,0,4.25-1,6.42,6.42,0,0,0,2.66-2.88,10.51,10.51,0,0,0,.94-4.64V406.26a4.31,4.31,0,0,1,1.22-3.13A4.15,4.15,0,0,1,409.63,401.87Z"/><path class="cls-2" d="M437.07,409.17l-11.92,28.57a2.91,2.91,0,0,1-1,1.32,2.59,2.59,0,0,1-3.23-.18,2.43,2.43,0,0,1-.58-1.67,2.62,2.62,0,0,1,.16-.85L434,403.82a2.65,2.65,0,0,1,1-1.38,2.43,2.43,0,0,1,1.56-.42,2.62,2.62,0,0,1,1.54.47,2.72,2.72,0,0,1,1,1.33l13.3,32.06a2.9,2.9,0,0,1,.21,1.06,2.41,2.41,0,0,1-.77,1.88,2.44,2.44,0,0,1-1.72.72,2.36,2.36,0,0,1-1.45-.5,3,3,0,0,1-1-1.3l-12-28.46Zm-9.8,21,2.38-5.09h15l.9,5.09Z"/><path class="cls-2" d="M472.63,402.23a9.5,9.5,0,0,1,5.2,1.51,11,11,0,0,1,3.81,4.11,12.64,12.64,0,0,1,0,11.68,11.42,11.42,0,0,1-3.81,4.19,9.3,9.3,0,0,1-5.2,1.56H462.4l.43-.79v12.13a2.72,2.72,0,0,1-.72,1.94,2.44,2.44,0,0,1-1.88.77,2.41,2.41,0,0,1-1.83-.77,2.76,2.76,0,0,1-.71-1.94V404.93a2.63,2.63,0,0,1,2.7-2.7Zm0,18a3.92,3.92,0,0,0,2.52-.9,6.68,6.68,0,0,0,1.86-2.38,7.33,7.33,0,0,0,.71-3.18,7.2,7.2,0,0,0-.71-3.23,6.5,6.5,0,0,0-1.86-2.31,4.06,4.06,0,0,0-2.52-.87H462.3l.53-.75v14.31l-.48-.69Z"/><path class="cls-2" d="M495,436.62a2.82,2.82,0,0,1-2.81,2.71,2.61,2.61,0,0,1-2.76-2.71V404.93a2.56,2.56,0,0,1,.8-1.93,2.82,2.82,0,0,1,2.07-.77,2.66,2.66,0,0,1,1.88.77,2.51,2.51,0,0,1,.82,1.93Z"/><path class="cls-3" d="M97.82,424.92a13.65,13.65,0,0,0,.3,3.1c.85,2.52,3.91.81,9.94-1.33a57.87,57.87,0,0,0,15.48-7.77c2.17-1.61,4.48-2.36,7-3.39,1.86-.77,3.91-2.2,6.57-5.73a6.13,6.13,0,0,0,1.3-4,10.9,10.9,0,0,0-.24-1.79c-.7-1-.87-4.22-8.35-3l-.07,0-.71.13-.34,0c4.07-1.35,6-1.62,7.45-1,2.49,1.12,2,1.13,3.65,3.32A12.52,12.52,0,0,1,141,406.8c.23,4.23-2.59,7.34-8.71,12.34A85,85,0,0,1,119.15,428a54.44,54.44,0,0,1-11.31,4.77c-5.34,1.51-9.72,1.07-11.1-1-1.15-1.71-.72-3.86.82-6.35.11-.19.26-.38.39-.56Z"/><circle class="cls-4" cx="120.31" cy="420.66" r="8.33"/></svg>