<svg xmlns="http://www.w3.org/2000/svg" xmlns:xlink="http://www.w3.org/1999/xlink" viewBox="0 0 219.07 37.08"><defs><style>.cls-1{fill:url(#linear-gradient);}.cls-2{fill:url(#linear-gradient-2);}.cls-3{fill:url(#linear-gradient-3);}.cls-4{fill:url(#linear-gradient-4);}.cls-5{fill:url(#linear-gradient-5);}.cls-6{fill:url(#linear-gradient-6);}.cls-7{fill:url(#linear-gradient-7);}.cls-8{fill:url(#linear-gradient-8);}.cls-9{fill:url(#linear-gradient-9);}.cls-10{fill:url(#linear-gradient-10);}.cls-11{fill:url(#linear-gradient-11);}.cls-12{fill:url(#linear-gradient-12);}.cls-13{fill:#6d51a2;stroke:#fff;stroke-miterlimit:10;}.cls-14{fill:#7b53a2;}</style><linearGradient id="linear-gradient" x1="0.52" y1="18.72" x2="223.61" y2="19.94" gradientUnits="userSpaceOnUse"><stop offset="0" stop-color="#facd18"/><stop offset="0.1" stop-color="#f7a72b"/><stop offset="0.33" stop-color="#ef475c"/><stop offset="0.34" stop-color="#ef415f"/><stop offset="0.75" stop-color="#a32577"/><stop offset="1" stop-color="#7b53a2"/></linearGradient><linearGradient id="linear-gradient-2" x1="0.52" y1="18.45" x2="223.61" y2="19.67" xlink:href="#linear-gradient"/><linearGradient id="linear-gradient-3" x1="0.53" y1="16.08" x2="223.62" y2="17.31" xlink:href="#linear-gradient"/><linearGradient id="linear-gradient-4" x1="0.52" y1="18.07" x2="223.61" y2="19.3" xlink:href="#linear-gradient"/><linearGradient id="linear-gradient-5" x1="0.52" y1="18.17" x2="223.61" y2="19.39" xlink:href="#linear-gradient"/><linearGradient id="linear-gradient-6" x1="0.54" y1="14.03" x2="223.64" y2="15.26" xlink:href="#linear-gradient"/><linearGradient id="linear-gradient-7" x1="0.52" y1="17.99" x2="223.61" y2="19.22" xlink:href="#linear-gradient"/><linearGradient id="linear-gradient-8" x1="0.5" y1="21.59" x2="223.59" y2="22.81" xlink:href="#linear-gradient"/><linearGradient id="linear-gradient-9" x1="0.5" y1="21.66" x2="223.59" y2="22.89" xlink:href="#linear-gradient"/><linearGradient id="linear-gradient-10" x1="0.53" y1="17.44" x2="223.62" y2="18.67" xlink:href="#linear-gradient"/><linearGradient id="linear-gradient-11" x1="0.53" y1="17.34" x2="223.62" y2="18.56" xlink:href="#linear-gradient"/><linearGradient id="linear-gradient-12" x1="0.53" y1="17.26" x2="223.62" y2="18.48" xlink:href="#linear-gradient"/></defs><g id="Layer_2" data-name="Layer 2"><g id="Layer_1-2" data-name="Layer 1"><path class="cls-1" d="M21.27,7.71a2.31,2.31,0,0,0-1.72.7,2.38,2.38,0,0,0-.68,1.74v.06c-.24-.22-.49-.44-.78-.66a9.7,9.7,0,0,0-2.5-1.32,9.39,9.39,0,0,0-3.16-.52A8.87,8.87,0,0,0,7.55,9.13a10.1,10.1,0,0,0-3.5,3.92,12.43,12.43,0,0,0-1.3,5.78,12.35,12.35,0,0,0,1.3,5.74,10,10,0,0,0,3.54,3.91,9.11,9.11,0,0,0,5,1.42,7.68,7.68,0,0,0,2.82-.5,9.33,9.33,0,0,0,2.26-1.22,8.56,8.56,0,0,0,1.2-1.07,2.35,2.35,0,0,0,.68,1.69,2.27,2.27,0,0,0,1.72.7A2.3,2.3,0,0,0,23,28.8a2.39,2.39,0,0,0,.68-1.74V10.15A2.41,2.41,0,0,0,23,8.39,2.36,2.36,0,0,0,21.27,7.71ZM18.33,22.23a6,6,0,0,1-2.06,2.4,5.48,5.48,0,0,1-3.08.88,5.4,5.4,0,0,1-3-.88,6,6,0,0,1-2.06-2.4,7.74,7.74,0,0,1-.74-3.4,7.79,7.79,0,0,1,.74-3.44A6,6,0,0,1,10.15,13a5.32,5.32,0,0,1,3-.88,5.4,5.4,0,0,1,3.08.88,6,6,0,0,1,2.06,2.4,7.79,7.79,0,0,1,.74,3.44A7.74,7.74,0,0,1,18.33,22.23Z"/><path class="cls-2" d="M41.64,18.58a9.91,9.91,0,0,0-2.25-1.14c-.82-.29-1.62-.54-2.41-.75s-1.48-.43-2.15-.65a4.74,4.74,0,0,1-1.6-.87,1.87,1.87,0,0,1-.59-1.44,1.83,1.83,0,0,1,.51-1.44,2.59,2.59,0,0,1,1.21-.59,6.75,6.75,0,0,1,1.28-.14,6.19,6.19,0,0,1,2.58.51A4.66,4.66,0,0,1,40,13.45a2.05,2.05,0,0,0,1.3.54,1.92,1.92,0,0,0,1.38-.42,1.71,1.71,0,0,0,.75-1.5,2.79,2.79,0,0,0-.51-1.42,6.3,6.3,0,0,0-2-1.71A9.94,9.94,0,0,0,38.32,8a11.72,11.72,0,0,0-2.56-.3,9.29,9.29,0,0,0-3.69.75,7.25,7.25,0,0,0-2.86,2.13,5.19,5.19,0,0,0-1.11,3.36,5.63,5.63,0,0,0,.68,2.88,5.33,5.33,0,0,0,1.73,1.83,10,10,0,0,0,2.35,1.12c.85.29,1.69.56,2.5.79s1.51.44,2.15.67a5,5,0,0,1,1.56.87,1.71,1.71,0,0,1,.59,1.38A2,2,0,0,1,39.13,25a2.45,2.45,0,0,1-1.24.63,12.16,12.16,0,0,1-1.3.18,7,7,0,0,1-3.16-.63A9.31,9.31,0,0,1,31,23.39a2.24,2.24,0,0,0-1.38-.73A2.16,2.16,0,0,0,28.3,23a1.87,1.87,0,0,0-1,1.5,2.2,2.2,0,0,0,.35,1.42,8.09,8.09,0,0,0,3.87,2.86,14.06,14.06,0,0,0,4.65.81,9.56,9.56,0,0,0,3.63-.73,7.56,7.56,0,0,0,3-2.15,5.18,5.18,0,0,0,1.18-3.43,5.77,5.77,0,0,0-.63-2.86A5.42,5.42,0,0,0,41.64,18.58Z"/><path class="cls-3" d="M56.27,12.82a2.17,2.17,0,0,0,1.58-.61,2,2,0,0,0,.63-1.52,2.15,2.15,0,0,0-2.21-2.21h-2.8V6a2.42,2.42,0,0,0-.65-1.72,2.19,2.19,0,0,0-1.68-.69A2.36,2.36,0,0,0,48.74,6V8.48H46.92a2.21,2.21,0,0,0-1.58.61,2,2,0,0,0-.63,1.52,2.15,2.15,0,0,0,2.21,2.21h1.82V23.71a6.44,6.44,0,0,0,.59,3,4.07,4.07,0,0,0,1.48,1.63,4.82,4.82,0,0,0,1.89.67,12.41,12.41,0,0,0,1.84.14,4.92,4.92,0,0,0,2.58-.71,2.13,2.13,0,0,0,.75-3.23,1.33,1.33,0,0,0-1-.51,2.13,2.13,0,0,0-.9.17,2.12,2.12,0,0,1-.87.18,2,2,0,0,1-.81-.16,1.17,1.17,0,0,1-.59-.51,1.68,1.68,0,0,1-.22-.91V12.82Z"/><path class="cls-4" d="M74.6,8.36a3.08,3.08,0,0,0-2-.67,8.36,8.36,0,0,0-2,.24,7.07,7.07,0,0,0-1.85.73,6.84,6.84,0,0,0-1.56,1.22A6,6,0,0,0,66.37,11v-.54a2.35,2.35,0,0,0-.67-1.71,2.43,2.43,0,0,0-3.39,0,2.35,2.35,0,0,0-.67,1.71v16.3a2.35,2.35,0,0,0,.67,1.71,2.43,2.43,0,0,0,3.39,0,2.35,2.35,0,0,0,.67-1.71V17.44A7.33,7.33,0,0,1,66.75,15a5.36,5.36,0,0,1,1-1.75,3.94,3.94,0,0,1,1.34-1.05,3.5,3.5,0,0,1,1.44-.33,3.4,3.4,0,0,1,1.4.27,3.18,3.18,0,0,0,1.36.28,2.19,2.19,0,0,0,1.46-.57,2.35,2.35,0,0,0,.67-1.88A2,2,0,0,0,74.6,8.36Z"/><path class="cls-5" d="M91.87,9.09A10.76,10.76,0,0,0,77.16,13a11.07,11.07,0,0,0-1.44,5.7,11.07,11.07,0,0,0,1.44,5.7A10.36,10.36,0,0,0,81,28.21a11.33,11.33,0,0,0,10.84,0,10.36,10.36,0,0,0,3.87-3.85,11.07,11.07,0,0,0,1.44-5.7A11.07,11.07,0,0,0,95.74,13,10.56,10.56,0,0,0,91.87,9.09Zm-.23,13a6,6,0,0,1-2.17,2.31,5.91,5.91,0,0,1-6,0,6,6,0,0,1-2.17-2.31,7,7,0,0,1-.81-3.45,7.14,7.14,0,0,1,.81-3.49,6,6,0,0,1,2.17-2.31,5.91,5.91,0,0,1,6,0,6,6,0,0,1,2.17,2.31,7.14,7.14,0,0,1,.81,3.49A7,7,0,0,1,91.64,22.11Z"/><path class="cls-6" d="M102.94,0a2.36,2.36,0,0,0-2.41,2.41V26.79a2.39,2.39,0,0,0,.67,1.71,2.23,2.23,0,0,0,1.66.69,2.36,2.36,0,0,0,2.41-2.4V2.41a2.42,2.42,0,0,0-.65-1.72A2.22,2.22,0,0,0,102.94,0Z"/><path class="cls-7" d="M124.38,9.09A10.74,10.74,0,0,0,109.67,13a11.07,11.07,0,0,0-1.44,5.7,11.07,11.07,0,0,0,1.44,5.7,10.41,10.41,0,0,0,3.86,3.85,11.35,11.35,0,0,0,10.85,0,10.36,10.36,0,0,0,3.87-3.85,11.07,11.07,0,0,0,1.44-5.7,11.07,11.07,0,0,0-1.44-5.7A10.56,10.56,0,0,0,124.38,9.09Zm-.24,13A5.9,5.9,0,0,1,122,24.42a5.89,5.89,0,0,1-6,0,6,6,0,0,1-2.17-2.31,7,7,0,0,1-.81-3.45,7.14,7.14,0,0,1,.81-3.49,6,6,0,0,1,2.17-2.31,5.89,5.89,0,0,1,6,0,5.9,5.9,0,0,1,2.17,2.31,7.14,7.14,0,0,1,.81,3.49A7,7,0,0,1,124.14,22.11Z"/><path class="cls-8" d="M150.32,7.69a2.28,2.28,0,0,0-1.7.69A2.41,2.41,0,0,0,148,10.1v.45a8.13,8.13,0,0,0-1.12-1,8.66,8.66,0,0,0-2.39-1.3,8.47,8.47,0,0,0-3-.52,9.07,9.07,0,0,0-4.93,1.4A10.12,10.12,0,0,0,133,13a12,12,0,0,0-1.3,5.7,11.9,11.9,0,0,0,1.3,5.66,10,10,0,0,0,3.55,3.87,9.38,9.38,0,0,0,5.05,1.4,7.25,7.25,0,0,0,2.68-.5,8.45,8.45,0,0,0,2.19-1.2,6.89,6.89,0,0,0,1.46-1.44.47.47,0,0,0,.06-.09v1.93a4,4,0,0,1-1.42,3.27,6.72,6.72,0,0,1-4.38,1.18,7.65,7.65,0,0,1-1.91-.29c-.72-.2-1.39-.42-2-.65s-1-.4-1.3-.48a2,2,0,0,0-1.66.1A2.5,2.5,0,0,0,134.14,33a2,2,0,0,0,.18,1.64A3.36,3.36,0,0,0,136,35.9a12.22,12.22,0,0,0,1.74.51c.76.19,1.56.34,2.4.48a14,14,0,0,0,2.05.19,14.42,14.42,0,0,0,5.17-.92,8.39,8.39,0,0,0,3.89-3,9.34,9.34,0,0,0,1.48-5.51V10.1A2.39,2.39,0,0,0,152,8.36,2.35,2.35,0,0,0,150.32,7.69ZM147.4,22a5.94,5.94,0,0,1-2.09,2.37,5.7,5.7,0,0,1-3.16.87,5.58,5.58,0,0,1-3.11-.87A5.87,5.87,0,0,1,137,22a7.37,7.37,0,0,1-.75-3.35,7.48,7.48,0,0,1,.75-3.39A5.87,5.87,0,0,1,139,12.9a5.58,5.58,0,0,1,3.11-.87,5.7,5.7,0,0,1,3.16.87,5.94,5.94,0,0,1,2.09,2.37,7.48,7.48,0,0,1,.75,3.39A7.37,7.37,0,0,1,147.4,22Z"/><path class="cls-9" d="M172.29,8.09a2.25,2.25,0,0,0-1.69.69,2.35,2.35,0,0,0-.67,1.71v10.1a5.79,5.79,0,0,1-.52,2.55A3.61,3.61,0,0,1,168,24.72a4.72,4.72,0,0,1-2.33.53,4.4,4.4,0,0,1-3.13-1.05,4.77,4.77,0,0,1-1.13-3.61V10.49a2.35,2.35,0,0,0-.67-1.71,2.43,2.43,0,0,0-3.39,0,2.35,2.35,0,0,0-.67,1.71V22a8.58,8.58,0,0,0,.87,3.93,6.62,6.62,0,0,0,2.42,2.68,6.75,6.75,0,0,0,3.65,1,10.49,10.49,0,0,0,3.16-.44,6.78,6.78,0,0,0,2.39-1.28A6.93,6.93,0,0,0,170,27v.42a6.82,6.82,0,0,1-.61,3.17,3.49,3.49,0,0,1-1.81,1.66,8,8,0,0,1-3,.49,6.27,6.27,0,0,1-2.37-.41c-.68-.28-1.23-.48-1.65-.61a2,2,0,0,0-1.66.1,2.4,2.4,0,0,0-1.14,1.55,1.92,1.92,0,0,0,.17,1.64,3.36,3.36,0,0,0,1.64,1.28,9.12,9.12,0,0,0,2.33.6,19.63,19.63,0,0,0,2.68.19,13.36,13.36,0,0,0,5.13-.94A7.85,7.85,0,0,0,173.3,33a10.68,10.68,0,0,0,1.36-5.78V10.49A2.35,2.35,0,0,0,174,8.78,2.27,2.27,0,0,0,172.29,8.09Z"/><path class="cls-10" d="M188.46,9.16a1.5,1.5,0,0,0-.55-.73,1.46,1.46,0,0,0-.84-.26,1.38,1.38,0,0,0-.86.23,1.53,1.53,0,0,0-.57.76L178.27,27a1.43,1.43,0,0,0-.09.46,1.37,1.37,0,0,0,.32.92,1.25,1.25,0,0,0,1,.36,1.28,1.28,0,0,0,.78-.26,1.58,1.58,0,0,0,.52-.73l1.73-4.12h8.9l1.75,4.12a1.57,1.57,0,0,0,.53.71,1.26,1.26,0,0,0,.8.28,1.34,1.34,0,0,0,.94-.39,1.32,1.32,0,0,0,.43-1,1.47,1.47,0,0,0-.12-.58Zm-4.78,11.67L186.94,13l3.3,7.81Z"/><path class="cls-11" d="M209.66,9.11a5.23,5.23,0,0,0-2.85-.82h-6.7a1.43,1.43,0,0,0-1.06.42,1.4,1.4,0,0,0-.43,1.06V27.13a1.46,1.46,0,0,0,.4,1.06,1.3,1.3,0,0,0,1,.42,1.35,1.35,0,0,0,1-.42,1.49,1.49,0,0,0,.39-1.06V20.92h5.37a5.1,5.1,0,0,0,2.85-.86,6.24,6.24,0,0,0,2.09-2.29,6.57,6.57,0,0,0,.78-3.18,6.62,6.62,0,0,0-.78-3.23A6.2,6.2,0,0,0,209.66,9.11Zm-.45,7.22a3.64,3.64,0,0,1-1,1.31,2.14,2.14,0,0,1-1.38.49h-5.37V11.07h5.37a2.19,2.19,0,0,1,1.38.48,3.5,3.5,0,0,1,1,1.27,3.9,3.9,0,0,1,.39,1.77A4,4,0,0,1,209.21,16.33Z"/><path class="cls-12" d="M218.62,8.71a1.48,1.48,0,0,0-1-.42,1.59,1.59,0,0,0-1.14.42A1.4,1.4,0,0,0,216,9.77V27.13a1.42,1.42,0,0,0,.41,1.06,1.45,1.45,0,0,0,1.1.42,1.54,1.54,0,0,0,1.54-1.48V9.77A1.38,1.38,0,0,0,218.62,8.71Z"/><path class="cls-13" d="M1.45,20.72a7.85,7.85,0,0,0,.16,1.7c.47,1.38,2.15.44,5.45-.73a31.86,31.86,0,0,0,8.48-4.26,17,17,0,0,1,3.83-1.86A8.76,8.76,0,0,0,23,12.44a3.38,3.38,0,0,0,.71-2.21,7,7,0,0,0-.13-1c-.39-.53-.48-2.32-4.58-1.63h0l-.39.07h-.18c2.23-.74,3.3-.89,4.08-.54,1.36.61,1.09.62,2,1.82a7.18,7.18,0,0,1,.67,1.8c.12,2.32-1.42,4-4.77,6.76a46.67,46.67,0,0,1-7.21,4.85A29.66,29.66,0,0,1,6.94,25c-2.93.82-5.32.58-6.08-.55-.63-.94-.4-2.11.44-3.48.07-.1.15-.2.22-.31Z"/><circle class="cls-14" cx="13.77" cy="18.38" r="4.57"/></g></g></svg>